<?xml version="1.0" encoding="UTF-8"?>
<svg width="15px" height="15px" viewBox="0 0 15 15" version="1.1" xmlns="http://www.w3.org/2000/svg" xmlns:xlink="http://www.w3.org/1999/xlink">
    <path d="M11.111 11.082c.329-.997.521-2.056.567-3.14h2.417a6.58 6.58 0 0 1-1.63 3.92 8.648 8.648 0 0 0-1.354-.78zm-.31.83c.355.167.699.36 1.029.58a6.613 6.613 0 0 1-1.98 1.187c.37-.55.687-1.14.95-1.767zm-6.502-.049c.276.666.613 1.295 1.01 1.874a6.618 6.618 0 0 1-2.14-1.244 7.817 7.817 0 0 1 1.13-.63zm-.04-8.747a7.737 7.737 0 0 1-1.087-.61c.598-.52 1.29-.93 2.047-1.21a10.243 10.243 0 0 0-.96 1.82zm6.582-.049c-.249-.603-.55-1.176-.902-1.713a6.618 6.618 0 0 1 1.889 1.151c-.317.213-.646.4-.987.562zM7.933 7.06v-2.37a8.629 8.629 0 0 0 2.385-.453c.282.898.446 1.85.482 2.823H7.933zm0 .882h2.862c-.044.97-.214 1.918-.502 2.81a8.631 8.631 0 0 0-2.36-.44v-2.37zm-.882 0v2.372a8.618 8.618 0 0 0-2.234.406 10.73 10.73 0 0 1-.492-2.778H7.05zm0-.882H4.32c.034-.958.194-1.897.47-2.784a8.643 8.643 0 0 0 2.26.413v2.37zm7.044 0h-2.413a11.584 11.584 0 0 0-.537-3.16 8.73 8.73 0 0 0 1.32-.76 6.58 6.58 0 0 1 1.63 3.92zM8.565.976a9.17 9.17 0 0 1 1.453 2.43 7.755 7.755 0 0 1-2.085.4V.904c.214.014.424.038.631.072zM7.05.906v2.9a7.744 7.744 0 0 1-1.964-.364A9.188 9.188 0 0 1 6.572.955c.158-.022.317-.04.479-.05zM2.536 3.138c.452.316.927.588 1.423.81-.31.984-.486 2.03-.521 3.11H.904a6.581 6.581 0 0 1 1.632-3.92zM.904 7.94h2.539c.044 1.066.232 2.108.55 3.09a8.626 8.626 0 0 0-1.457.83 6.584 6.584 0 0 1-1.632-3.92zm5.762 6.118a9.108 9.108 0 0 1-1.544-2.51 7.75 7.75 0 0 1 1.929-.354v2.9a6.936 6.936 0 0 1-.385-.036zm1.267.037v-2.902a7.746 7.746 0 0 1 2.052.386 9.107 9.107 0 0 1-1.514 2.458 6.351 6.351 0 0 1-.538.058zm4.977-1.41A7.468 7.468 0 0 0 15 7.5C15 3.815 12.34.757 8.837.126L8.826.124A7.544 7.544 0 0 0 7.5 0 7.5 7.5 0 0 0 0 7.5c0 2.021.803 3.853 2.104 5.201.005.008.006.016.011.023.012.016.03.024.044.038A7.475 7.475 0 0 0 7.5 15c2.082 0 3.965-.85 5.324-2.22.021-.018.047-.03.065-.052.01-.013.013-.029.021-.042z" fill="#BDC6CF" fill-rule="evenodd"/>
</svg>