<?xml version="1.0" encoding="UTF-8"?>
<svg id="icon-blazers" width="140px" height="30px" viewBox="0 0 140 30" version="1.1" xmlns="http://www.w3.org/2000/svg" xmlns:xlink="http://www.w3.org/1999/xlink">
      <path d="M48.376 8.136h.348l6.142 13.395H52.45l-1.304-2.855H43.56l-1.305 2.855H39.86L45.98 8.136h2.395zm-1.023 2.24l-2.662 5.825h5.324l-2.662-5.825zM136.715 0c1.617 0 2.907 1.499 2.928 3.378v23.244c0 1.88-1.31 3.378-2.908 3.378H2.907C1.29 30 0 28.477 0 26.622V3.378C0 1.498 1.29 0 2.907 0h133.808zm-.983 21.84h.02V7.898c0-1.879-1.31-3.378-2.906-3.378H6.796C5.18 4.52 3.89 6.02 3.89 7.898V21.84c0 1.88 1.29 3.378 2.907 3.378h126.028c1.618 0 2.907-1.523 2.907-3.378zM7.37 15V8.041l10.81.024c.941.143 1.699 1.642 1.699 3.473 0 1.79-.724 3.262-1.635 3.462.911.2 1.635 1.672 1.635 3.462 0 1.831-.758 3.33-1.7 3.473v.024H7.37V15zm9.213 3.866c.573-.048 1.023-.666 1.023-1.427 0-.762-.45-1.38-1.023-1.428H9.99v2.855h6.592zm0-5.496c.573-.047 1.023-.666 1.023-1.427s-.45-1.38-1.023-1.428H9.99v2.855h6.592zm74.233 2.38v3.52h9.56v2.475h-11.69V8.184h2.13v.024h9.56v2.474h-9.56v2.593h5.773v2.474h-5.773zm-64.652-.048v6.043h-2.56V8.04l11.158.024c.962.143 1.74 1.784 1.74 3.807 0 1.998-.757 3.663-1.74 3.806v.024H31l6.24 6.043H33.82l-6.24-6.043h-1.416zm6.326-1.927c.573-.072 1.023-.69 1.023-1.428 0-.761-.45-1.38-1.023-1.427h-6.592v2.855h6.592zm74.335 1.927v6.043h-2.559V8.04l11.158.024c.962.143 1.74 1.784 1.74 3.807 0 1.998-.758 3.663-1.74 3.806v.024h-3.763l6.24 6.043h-3.42l-6.24-6.043h-1.416zm6.326-1.927c.573-.072 1.024-.69 1.024-1.428 0-.761-.45-1.38-1.024-1.427h-6.592v2.855h6.592zm17.873-3.188h-7.104v2.902h7.206v.008a1.83 1.83 0 0 1 .164-.008c1.187 0 2.15 1.118 2.15 2.498v3.14c0 1.38-.963 2.499-2.15 2.499-.1 0-.198-.008-.295-.024h-8.099v-.024h-.04c-1.188 0-2.13-1.118-2.13-2.474v-1.309h2.436v1.238h7.82v-2.974h-7.096a1.837 1.837 0 0 1-.294.023c-1.167 0-2.129-1.118-2.129-2.474v-3.116c0-1.38.962-2.475 2.13-2.475.069 0 .137.004.204.011v-.01h7.329v.012c.074-.008.149-.013.225-.013 1.229 0 2.211 1.142 2.211 2.57v1.356h-2.538v-1.356zM58.879 21.578H56.77l8.803-11.039H58.49V7.946h12.549L62.217 19.01h7.614v2.593H58.88v-.024zm14.842 0h-2.108l8.77-11.039h-7.05V7.946H85.84L77.052 19.01h7.622v2.593H73.721v-.024z" fill="#FFF" fill-rule="evenodd" opacity=".2"/>
</svg>