<?xml version="1.0" encoding="UTF-8"?>
<svg id="icon-adobe" width="106px" height="23px" viewBox="0 0 106 23" version="1.1" xmlns="http://www.w3.org/2000/svg" xmlns:xlink="http://www.w3.org/1999/xlink"> 
    <path d="M41.929 17.417l-1.05 5.325h-3.88L41.838.588h4.754l4.397 22.154h-3.9l-1.028-5.325H41.93zm3.757-3.127h-3.322l.87-4.786c.241-1.322.572-3.545.807-5.054h.088c.225 1.498.519 3.659.75 5.042l.807 4.798zM63.804 0v18.147c0 1.439.073 3.208.132 4.592h-3.44l-.224-1.846h-.082c-.578 1.138-1.835 2.105-3.338 2.105-3.294 0-4.927-3.643-4.927-8.243 0-5.606 2.436-8.331 5.09-8.331 1.39 0 2.288.681 2.74 1.667h.068V.001h3.981V0zm-3.982 12.846v4.237c0 .407-.047.755-.138 1.014-.37 1.305-1.053 1.61-1.645 1.61-1.295 0-2.136-1.77-2.136-4.878 0-2.705.59-5.018 2.191-5.018.934 0 1.515.985 1.67 2.079.058.315.058.66.058.956zm12.2 10.153c-3.67 0-5.972-2.953-5.972-8.24 0-5.77 2.956-8.335 6.066-8.335 3.62 0 5.89 3.098 5.89 8.241 0 6.609-3.555 8.334-5.95 8.334h-.033zm.076-3.062h-.034c-1.622 0-2.066-2.52-2.066-5.248 0-2.26.353-5.206 2.034-5.206 1.586 0 1.963 2.945 1.963 5.205 0 2.378-.377 5.25-1.897 5.25zM80.232 0h3.983v8.363h.064c.784-1.234 1.83-1.939 3.346-1.939 3.002 0 4.511 3.422 4.511 7.896 0 5.652-2.25 8.678-5.165 8.678-1.388 0-2.313-.617-3.148-2.18h-.084l-.221 1.92h-3.42c.059-1.33.134-3.152.134-4.59V0zm3.983 17.007v-4.483c0-.298.073-.73.15-1.009.218-.882.854-1.704 1.61-1.704 1.523 0 2.18 1.961 2.18 4.81 0 3.129-.622 5.085-2.163 5.085-.543 0-1.22-.33-1.62-1.673a3.362 3.362 0 0 1-.157-1.026zm13.45-1.002c.046 2.903 1.57 3.848 3.46 3.848a8.5 8.5 0 0 0 2.984-.552l.537 2.87c-1.056.457-2.687.743-4.251.743-4.274 0-6.608-2.927-6.608-7.927 0-5.366 2.707-8.589 6.243-8.589 3.417 0 5.31 2.848 5.31 7.498 0 1.064-.044 1.664-.114 2.131l-7.562-.022zm4.014-2.823h-4c.044-1.719.657-3.834 2.098-3.834 1.263 0 1.923 1.58 1.902 3.834zM12.967 8.475l6.106 14.523h-4l-1.827-4.626h-4.47l4.191-9.897zM9.59 0L0 22.999V0h9.59zm6.753 0h9.584v22.999L16.343 0z" fill="#FFF" fill-rule="evenodd" opacity=".2"/>
</svg>