<?xml version="1.0" encoding="UTF-8"?>
<svg id="icon-motorola" width="156px" height="30px" viewBox="0 0 156 30" version="1.1" xmlns="http://www.w3.org/2000/svg" xmlns:xlink="http://www.w3.org/1999/xlink">
      <path d="M0 15.078C0 23.294 6.713 30 15.057 30c8.189 0 14.902-6.8 14.902-14.922C29.959 6.722 23.246 0 15.057 0 6.713 0 0 6.722 0 15.078zM10.555 3.264l4.502 14.923 4.502-14.923 5.743 19.12h-.931s-.3-.977-.621-1.866c-1.266-4.275-2.932-5.95-5.433-4.974-.598.156-1.485.963-2.018 1.71-.386.772-1.04 1.966-1.242 2.953-.218-.987-.872-2.18-1.242-2.953-.549-.747-1.42-1.554-2.018-1.71-2.5-.976-4.182.699-5.433 4.974-.322.889-.649 1.865-.62 1.865h-.932l5.743-19.119zm55.882 6.529c-.853.017-1.691.11-2.484.31-2.452.52-5.355 2.347-5.898 5.13-.203 1.54.574 2.913 1.862 3.73 1.74 1.025 3.82 1.322 5.9 1.244 1.49-.157 3.043-.547 4.345-1.243 1.338-.755 2.425-1.817 2.95-3.42.453-.91.406-2.252-.156-3.109-1.643-2.03-4.08-2.682-6.519-2.642zm27.475 0c-.859.017-1.681.11-2.484.31-2.457.52-5.344 2.347-5.898 5.13-.191 1.54.57 2.913 1.863 3.73 1.733 1.025 3.813 1.322 5.898 1.244 1.485-.157 3.038-.547 4.346-1.243 1.33-.755 2.417-1.817 2.95-3.42.46-.91.398-2.252-.155-3.109-1.635-2.03-4.088-2.682-6.52-2.642zm29.804 0c-.86.017-1.697.11-2.484.31-2.458.52-5.36 2.347-5.899 5.13-.19 1.54.57 2.913 1.863 3.73 1.734 1.025 3.798 1.322 5.899 1.244 1.5-.157 3.037-.547 4.346-1.243 1.33-.755 2.417-1.817 2.95-3.42.46-.91.398-2.252-.156-3.109-1.635-2.03-4.087-2.682-6.52-2.642zm-80.718.155l-2.794 10.104h3.26s1.467-5.254 1.552-5.285c-.023-.171.039-.202 0-.156.07-.046.117 0 .155 0l1.242 5.44h2.173l4.346-5.284c.022-.031.053-.047 0 0l-1.397 5.285h4.036l2.794-10.104h-5.433l-3.57 4.353-1.087-4.353h-5.277zm31.51 0l-.93 3.264h4.035c.15-.046.212.047.155.156l-1.707 6.684h3.88l2.019-6.84v-.155h4.19l.777-3.109H74.509zm28.718 0c-.832 3.327-1.696 6.746-2.484 10.104h3.725l.777-2.954h3.26c.485-.03.701.342.775.778l-.155 1.243c-.058.233-.027.404 0 .466.127.28.313.42.466.467h4.502c-.223-.218-.516-.544-.466-.933.011-.715.29-1.508.155-2.331-.16-.544-.761-.902-1.242-1.089-.09-.077.002-.124 0-.155 1.067-.404 2.195-1.15 2.64-2.332.296-.715.203-1.772-.467-2.331-.472-.575-1.275-.933-2.018-.933h-9.468zm29.803 0l-2.328 10.104h10.09l.62-2.954h-5.898c-.007.043-.054-.035 0-.155l1.552-6.995h-4.036zm15.057 0l-6.52 10.104h3.416l1.086-1.865h4.812c-.026.062-.01.093 0 .155l.466 1.71h4.191l-2.328-10.104h-5.123zm-81.649 2.487c.688.001 1.388.172 1.863.467.35.262.6.572.776.932.166 1.034-.317 2.041-1.242 2.798-1.005.839-2.608 1.226-4.036.622-.455-.14-1-.635-1.086-1.244-.085-1.25.584-2.458 1.707-3.108a4.13 4.13 0 0 1 2.018-.467zm27.63 0c.674.001 1.39.172 1.863.467.336.262.6.572.776.932.167 1.034-.331 2.041-1.242 2.798-1.018.839-2.606 1.226-4.036.622-.468-.14-.997-.635-1.086-1.244-.098-1.25.572-2.458 1.707-3.108.56-.31 1.276-.481 2.018-.467zm29.649 0c.683.001 1.399.172 1.862.467.361.262.61.572.776.932.176 1.034-.322 2.041-1.241 2.798-1.01.839-2.596 1.226-4.036.622-.458-.14-1.003-.635-1.087-1.244-.072-1.25.597-2.458 1.708-3.108a4.194 4.194 0 0 1 2.018-.467zm-15.523.156h2.328c.232.015.478.18.621.466.072.239-.036.569-.31.777-.248.302-.51.422-.932.467h-3.88l.465-1.71h1.708zm41.29.621c-.003 0 .028 0 0 0l.621 2.487h-2.328l1.707-2.487z" fill="#FFF" fill-rule="evenodd" opacity=".2"/>

</svg>