<?xml version="1.0" encoding="UTF-8"?>
<svg id="icon-data" width="56px" height="45px" viewBox="0 0 56 45" version="1.1" xmlns="http://www.w3.org/2000/svg" xmlns:xlink="http://www.w3.org/1999/xlink">
      <g fill="none" fill-rule="evenodd"><path d="M3.437 27.156a.852.852 0 0 1-.252-.038l-2.558-.794a.849.849 0 1 1 .504-1.624l2.558.794a.85.85 0 0 1-.252 1.662m7.64 2.371a.852.852 0 0 1-.252-.038l-3.82-1.186a.849.849 0 1 1 .503-1.624l3.821 1.186a.85.85 0 0 1-.252 1.662M48.207 28.159a.82.82 0 0 1-.223-.03l-3.861-1.044a.85.85 0 0 1 .443-1.641l3.862 1.045a.85.85 0 1 1-.221 1.67m6.445 1.744a.848.848 0 0 1-.222-.03l-2.584-.7a.85.85 0 0 1 .443-1.64l2.584.699a.85.85 0 0 1-.221 1.67" fill="#43484D" opacity=".3"/><path d="M34.096 1.623H13.561a3 3 0 0 0-3 3v36.492a3 3 0 0 0 3 3h28.954a3 3 0 0 0 3-3V13.296" fill="#E0E7ED"/><path d="M42.516 44.966H13.562a3.854 3.854 0 0 1-3.85-3.85V4.623a3.854 3.854 0 0 1 3.85-3.85h20.535a.85.85 0 1 1 0 1.7H13.562c-1.186 0-2.15.965-2.15 2.15v36.493c0 1.185.964 2.15 2.15 2.15h28.954c1.186 0 2.15-.965 2.15-2.15v-27.82a.85.85 0 1 1 1.7 0v27.82a3.854 3.854 0 0 1-3.85 3.85" fill="#43484D"/><path d="M34.096 1.623v9.173a2.5 2.5 0 0 0 2.5 2.5h8.92L34.095 1.623z" fill="#FEFEFE"/><path d="M34.946 3.708v7.088c0 .91.74 1.65 1.65 1.65h6.9l-8.55-8.739zm10.57 10.438h-8.92a3.353 3.353 0 0 1-3.349-3.35V1.624a.85.85 0 0 1 1.457-.595l11.42 11.674a.85.85 0 0 1-.609 1.444zM20.3 32.536a.836.836 0 0 1-.246-.037l-9.74-2.965a.85.85 0 1 1 .495-1.626l9.29 2.828 10.386-9.009a.842.842 0 0 1 .78-.178l14.474 3.942a.849.849 0 1 1-.447 1.64l-14.037-3.823-10.397 9.02a.85.85 0 0 1-.557.208" fill="#43484D"/><path d="M22.59 29.864a2.61 2.61 0 1 1-3.784 3.594 2.61 2.61 0 0 1 3.784-3.594" fill="#FEFEFE"/><path d="M20.698 29.902a1.758 1.758 0 0 0-1.274 2.971c.645.681 1.804.71 2.487.064a1.763 1.763 0 0 0 .063-2.488 1.745 1.745 0 0 0-1.276-.547m.001 5.218a3.476 3.476 0 0 1-2.508-1.076 3.465 3.465 0 0 1 .124-4.89c1.331-1.263 3.627-1.205 4.892.124a3.464 3.464 0 0 1-.126 4.891 3.445 3.445 0 0 1-2.382.951" fill="#43484D"/><path d="M32.863 20.572a2.61 2.61 0 1 1-3.785 3.594 2.61 2.61 0 0 1 3.785-3.594" fill="#FEFEFE"/><path d="M30.972 20.61c-.453 0-.883.171-1.211.483a1.745 1.745 0 0 0-.548 1.231c-.012.47.159.916.484 1.257.646.681 1.804.711 2.487.063a1.761 1.761 0 0 0-1.212-3.034m0 5.218a3.474 3.474 0 0 1-2.508-1.076 3.434 3.434 0 0 1-.95-2.472 3.43 3.43 0 0 1 1.076-2.419c1.327-1.264 3.628-1.204 4.89.125a3.464 3.464 0 0 1-.126 4.891 3.445 3.445 0 0 1-2.382.951" fill="#43484D"/></g>

</svg>