<?xml version="1.0" encoding="UTF-8"?>
<svg id="icon-netflix" width="96px" height="26px" viewBox="0 0 96 26" version="1.1" xmlns="http://www.w3.org/2000/svg" xmlns:xlink="http://www.w3.org/1999/xlink">
      <path d="M81.852 24.36l4.99-12.342L82.616.013h4.098l2.328 6.59L91.69.066 91.73 0h4.15l-4.9 12.096L95.88 26a228.748 228.748 0 0 0-4.292-.569l-2.793-7.922-2.935 7.263a420.982 420.982 0 0 0-4.008-.413zm-3.103-.285c-1.357-.129-2.728-.232-4.098-.349V0h4.098v24.075zm-30.77-1.357c-.272 0-.53.013-.802 0V0h9.774v3.773H51.29v6.359h4.925v3.76H51.29v8.84c-1.1 0-2.198-.014-3.31-.014zm-12.722.233V3.773H31.43V0h11.752v3.773h-3.827v19.049c-1.37.039-2.728.077-4.098.129zM3.93 25.497c-1.305.155-2.611.336-3.904.504H0V0h4.098l5.237 14.848V0h3.93v24.437c-1.5.155-3 .31-4.486.478L3.93 11.152v14.345zM27.474 3.773h-5.676v6.359h4.926v3.773h-4.926v6.022c1.888-.142 3.775-.271 5.663-.375v3.774a347.62 347.62 0 0 0-9.774.71V0h9.787v3.773zm37.61 15.598c1.887.09 3.775.194 5.675.336v3.761c-3.258-.22-6.516-.388-9.787-.504V0h4.112v19.371z" fill="#FFF" fill-rule="evenodd" opacity=".2"/>

</svg>