<?xml version="1.0" encoding="UTF-8"?>
<svg id="icon-prototype" width="52px" height="48px" viewBox="0 0 52 48" version="1.1" xmlns="http://www.w3.org/2000/svg" xmlns:xlink="http://www.w3.org/1999/xlink">
      <g fill="none" fill-rule="evenodd"><path d="M13.07 14.717H9.165a.852.852 0 0 1-.844-.858c0-.474.378-.859.844-.859h3.907c.465 0 .843.385.843.859a.851.851 0 0 1-.843.858zm7.816 0h-3.908a.851.851 0 0 1-.843-.858c0-.474.378-.859.843-.859h3.908c.465 0 .843.385.843.859a.851.851 0 0 1-.843.858zm7.816 0h-3.909a.851.851 0 0 1-.842-.858c0-.474.377-.859.842-.859h3.909c.465 0 .842.385.842.859a.851.851 0 0 1-.842.858zm15.63 0h-3.908a.851.851 0 0 1-.843-.858c0-.474.378-.859.843-.859h3.907c.465 0 .843.385.843.859a.851.851 0 0 1-.843.858zM1.842 16.38a.823.823 0 0 1-.532-.195.87.87 0 0 1-.12-1.208A5.23 5.23 0 0 1 5.252 13c.487.005.845.38.847.854a.85.85 0 0 1-.838.863 3.564 3.564 0 0 0-2.765 1.347.834.834 0 0 1-.652.315zm49.049 1.316a.844.844 0 0 1-.793-.566 3.617 3.617 0 0 0-2.173-2.2.863.863 0 0 1-.51-1.098.84.84 0 0 1 1.076-.52 5.319 5.319 0 0 1 3.192 3.232.862.862 0 0 1-.505 1.1.802.802 0 0 1-.287.052zM.842 24.103A.851.851 0 0 1 0 23.244v-3.981c0-.474.378-.859.843-.859.465 0 .842.385.842.859v3.981a.851.851 0 0 1-.842.859zm50.315 1.523a.851.851 0 0 1-.842-.858v-3.982c0-.474.377-.859.842-.859.465 0 .843.385.843.859v3.982a.851.851 0 0 1-.843.858zM.843 32.066A.851.851 0 0 1 0 31.207v-3.982c0-.473.378-.858.843-.858.465 0 .842.385.842.858v3.982a.851.851 0 0 1-.842.859zm50.314 1.523a.851.851 0 0 1-.842-.859v-3.982c0-.473.377-.858.842-.858.465 0 .843.385.843.858v3.982a.851.851 0 0 1-.843.859zM1.1 39.997a.842.842 0 0 1-.794-.57A5.44 5.44 0 0 1 0 37.618v-2.431c0-.474.378-.859.843-.859.465 0 .842.385.842.859v2.431c0 .423.07.838.209 1.232a.864.864 0 0 1-.512 1.096.813.813 0 0 1-.283.05zm49.073 1.321a.83.83 0 0 1-.53-.19.868.868 0 0 1-.125-1.208 3.664 3.664 0 0 0 .798-2.3v-.909c0-.474.377-.858.842-.858.465 0 .843.384.843.858v.908A5.45 5.45 0 0 1 50.827 41a.834.834 0 0 1-.655.318zM7.642 43h-2.36c-.62 0-1.227-.108-1.803-.322a.863.863 0 0 1-.505-1.1.839.839 0 0 1 1.08-.514c.392.145.805.219 1.227.219h2.362a.85.85 0 0 1 .843.858.85.85 0 0 1-.843.859zm7.816 0h-3.907a.851.851 0 0 1-.843-.859c0-.473.378-.858.843-.858h3.907c.465 0 .843.385.843.858a.851.851 0 0 1-.843.859zm7.816 0h-3.908a.85.85 0 0 1-.842-.859.85.85 0 0 1 .842-.858h3.908c.465 0 .842.385.842.858a.851.851 0 0 1-.842.859zm7.815 0h-3.908a.851.851 0 0 1-.843-.859c0-.473.378-.858.843-.858h3.908c.465 0 .843.385.843.858a.851.851 0 0 1-.843.859zm11.723 0a.851.851 0 0 1-.843-.859c0-.473.378-.858.843-.858h3.907c.466 0 .868.384.868.858s-.352.859-.817.859v-.86l-.027.86h-3.931z" fill-opacity=".3" fill="#43484D"/><path fill="#E0E7ED" d="M22.92 42.043H12.17V13.631h10.75z"/><path d="M29.896 7.043h3.273M29.896 21.043h3.273M29.896 14.043h6.273M29.896 28.043h6.273M29.896 35.042h3.273M29.896 42.042h6.273" fill="#FEFEFE"/><path d="M40.34 44.106c0 1.215-.972 2.203-2.165 2.203h-5.902c-.89 0-1.612-.736-1.612-1.641v-1.877h5.299c.458 0 .83-.38.83-.846a.838.838 0 0 0-.83-.845h-5.3v-5.27h2.369c.458 0 .83-.379.83-.845a.838.838 0 0 0-.83-.845H30.66v-5.27h5.299c.458 0 .83-.379.83-.845a.838.838 0 0 0-.83-.846h-5.3v-5.27h2.369c.458 0 .83-.378.83-.845a.838.838 0 0 0-.83-.845H30.66v-5.27h5.299c.458 0 .83-.379.83-.845a.838.838 0 0 0-.83-.845h-5.3v-5.27h2.369c.458 0 .83-.38.83-.846a.838.838 0 0 0-.83-.845H30.66V3.331c0-.905.723-1.64 1.612-1.64h6.454c.89 0 1.612.735 1.612 1.64v40.775zM38.726 0h-6.454C30.468 0 29 1.495 29 3.331v41.337C29 46.505 30.468 48 32.273 48h5.902C40.285 48 42 46.253 42 44.106V3.331C42 1.495 40.532 0 38.727 0z" fill="#43484D"/><path d="M12.92 13.63h9.25M12.17 42.042h10.75M17.545 13.63v27.746M17.545 7.112v-2.57" fill="#FEFEFE"/><path d="M18.677 46.317h-3.354c-1.48 0-2.684-1.237-2.684-2.757v-.747h8.722v.747c0 1.52-1.203 2.757-2.684 2.757zM16.186 8.673A.96.96 0 0 1 17 8.228c.332 0 .63.162.814.445l2.828 4.325h-7.285l2.829-4.325zm1.633 6.008h3.521c.01.096.021.192.021.289v26.16H17.82V14.68zm-5.18.289c0-.097.011-.193.02-.289h3.522V41.13h-3.542V14.97zm9.608-2.537l-3.073-4.698a2.612 2.612 0 0 0-1.355-1.038V4.842A.831.831 0 0 0 17 4a.831.831 0 0 0-.82.842v1.855a2.618 2.618 0 0 0-1.355 1.038l-3.073 4.698A4.628 4.628 0 0 0 11 14.97v28.59c0 2.448 1.938 4.44 4.323 4.44h3.354C21.061 48 23 46.008 23 43.56V14.97c0-.907-.26-1.784-.753-2.537z" fill="#43484D"/></g>
</svg>