<?xml version="1.0" encoding="UTF-8"?>
<svg id="icon-marvel" width="79px" height="35px" viewBox="0 0 79 35" version="1.1" xmlns="http://www.w3.org/2000/svg" xmlns:xlink="http://www.w3.org/1999/xlink">
      <path d="M67.043 22.227c1.59.126 1.07 2.105-.043 2.037-22.782-1.4-45.88 3.6-57.327 9.774-1.584.854-2.985.45-3.326-.364-.399-.952-.16-2.654 2.802-4.067 5.416-2.583 29.135-9.67 57.894-7.38zm7.187-8.712c1.003-1.139 2.48.248 1.23 1.868-1.685 2.186-5.102 4.22-7.122 4.035-1.694-.155-1.87-2.43-1.728-3.58.011-.094.025-.19.038-.284-1.963 1.632-4.643 3.427-6.986 3.48-1.962.044-3.698-.876-3.84-3.398a10.51 10.51 0 0 1 .151-2.431 4.223 4.223 0 0 1-1.644-.687c-1.898 3.26-4.789 6.649-7.571 6.782-2.084.1-2.874-1.62-2.825-3.795.023-.99.168-2.007.38-2.992-1.392 1.222-3.092 2.196-4.161 1.024-1.332-1.46.932-5.057.319-5.057-.743 0-3.292 3.189-4.334 10.757-.225 1.638-3.52 1.777-3.219-.191.012-.078.044-.26.092-.517-1.186 1.36-2.624 2.595-4.066 2.816-2.118.324-2.585-2.06-2.585-2.06s-1.58 3.005-3.617 3.239c-1.64.187-2.696-1.06-2.89-3.08-.374-3.904 2.576-11.832 7.115-12.321 1.384-.15 2.06.788 2.06.788s.567-1.145 1.657-1.34c.772-.139 1.533.116 1.66 1.289.098.901-.7 2.875-1.278 3.813-.155.25-1.474 5.284-.388 5.166 1.325-.142 2.939-2.909 3.439-3.825.561-2.632 1.184-5.288 1.547-6.06.991-2.107 3.167-1.56 3.206-.444.03.811-.372 1.732-.372 1.732s1.997-3.084 3.466-3.285c1.046-.143 2.008.47 2.174 1.69.184 1.34-1.517 3.686-.947 4.023.375.221 1.512-1.047 2.291-1.97.372-.937.738-1.704 1.008-2.184 1.048-1.863 2.931-2.027 3.615-1.53.294.212.657.635.417 1.58-.15.59-.627 1.261-1.197 1.867-.906 2.833-1.955 6.719-1.086 6.745.949.029 3.632-2.648 4.333-4.824 0 0-.742-1.511-.545-2.953.29-2.116 1.47-2.979 2.438-3.022 1.507-.067 2.236 1.203 1.984 3.04-.092.673-.418 1.652-.915 2.762a3.06 3.06 0 0 0 1.21.472c1.559-3.606 4.752-6.171 7.206-6.171 1.385 0 2.93.746 3.011 2.754 0 4.583-5.422 6.138-7.442 6.251-.117 1.142.244 1.998 1.442 1.998 2.335 0 4.872-2.076 6.514-3.717 1.155-3.923 3.179-7.805 5.387-9.916C76.097-1.243 79-.221 79 3.162c0 3.656-5.512 8.418-8.335 10.182 0 0-.608 1.586-.014 2.103.593.517 2.32-.502 3.58-1.932zM76.024 3.08c.183 0 .275.14.275.424 0 2.158-5.315 6.742-5.315 6.742s3.49-7.166 5.04-7.166zM27.6 11.01c-.168 1.313-2.392 7.052-3.6 7.086-1.548.043.768-8.22 3.256-8.163.439.01.431.387.344 1.076zm35.619-3.325c.433 0 .678.252.678.687 0 1.146-1.603 2.064-3.401 2.197.812-1.558 1.947-2.884 2.723-2.884zM8.169 12.58c-2.13-.022-4.76 10.729-4.374 15.422.209 2.523-3.752 3.062-3.792-.103C-.123 17.98 4.297 6.869 8.76 7.114c2.916.16 2.615 4.508 2.615 4.508s2.898-7.651 6.65-7.623c1.071.009 2.142.875 2.343 2.647.459 4.048-3.635 9.762-2.313 15.707.399 1.797-3.531 2.848-3.964-.182-.655-4.58 2.671-11.731 1.093-11.731-2.249 0-4.467 10.374-4.06 13.684.239 1.948-3.525 2.922-3.81-.461-.283-3.353 2.348-11.066.854-11.082z" fill="#FFF" fill-rule="evenodd" opacity=".2"/>

</svg>