<?xml version="1.0" encoding="UTF-8"?>
<svg id="icon-texts" width="47px" height="48px" viewBox="0 0 47 48" version="1.1" xmlns="http://www.w3.org/2000/svg" xmlns:xlink="http://www.w3.org/1999/xlink">
      <g fill="none" fill-rule="evenodd"><path d="M.85 3.738v10.957h45.317V3.738a3 3 0 0 0-3-3H3.85a3 3 0 0 0-3 3" fill="#E0E7ED"/><path d="M43.151 46.307H3.85c-1.185 0-2.15-.96-2.15-2.14V15.681h43.602v28.484c0 1.181-.964 2.141-2.15 2.141zM1.7 3.925c0-1.18.965-2.14 2.15-2.14H43.15c1.186 0 2.15.96 2.15 2.14V13.99H1.699V3.925zM43.151 0H3.85C1.726 0 0 1.72 0 3.834v40.332C0 46.28 1.726 48 3.849 48H43.15C45.274 48 47 46.28 47 44.166V3.834C47 1.72 45.274 0 43.151 0z" fill="#43484D"/><path d="M17.753 26.321a.85.85 0 0 0-1.202 0l-4.665 4.665a.85.85 0 0 0 0 1.202l4.665 4.665a.846.846 0 0 0 1.202 0 .85.85 0 0 0 0-1.202l-4.064-4.064 4.064-4.064a.85.85 0 0 0 0-1.202M28.605 26.321a.85.85 0 1 0-1.201 1.202l4.064 4.064-4.064 4.064a.85.85 0 1 0 1.201 1.202l4.667-4.665a.85.85 0 0 0 0-1.202l-4.666-4.665zM24.958 23.373a.852.852 0 0 0-1.065.557l-4.241 13.55a.85.85 0 1 0 1.622.509l4.241-13.551a.85.85 0 0 0-.557-1.065M10.293 7.717a1.914 1.914 0 1 1-3.828 0 1.914 1.914 0 0 1 3.828 0" fill="#43484D"/><path d="M16.293 7.717a1.914 1.914 0 1 1-3.828 0 1.914 1.914 0 0 1 3.828 0M22.293 7.717a1.914 1.914 0 1 1-3.828 0 1.914 1.914 0 0 1 3.828 0" fill="#43484D" opacity=".3"/></g>

</svg>