<?xml version="1.0" encoding="UTF-8"?>
<svg id="icon-evernote" width="139px" height="36px" viewBox="0 0 139 36" version="1.1" xmlns="http://www.w3.org/2000/svg" xmlns:xlink="http://www.w3.org/1999/xlink">
      <path d="M2.939 6.809H6.24a.34.34 0 0 0 .343-.344s-.04-2.827-.04-3.616v-.007c0-.645.137-1.208.37-1.681l.11-.213c-.014 0-.028.007-.041.02L.57 7.324c-.014.014-.02.02-.02.035a6.11 6.11 0 0 1 .336-.165c.563-.247 1.242-.384 2.053-.384zm25.671-.693c-.26-1.4-1.098-2.094-1.847-2.368-.81-.295-2.465-.597-4.538-.844-1.669-.2-3.625-.179-4.813-.144-.144-.975-.824-1.86-1.586-2.169-2.032-.816-5.177-.617-5.987-.398-.639.179-1.353.55-1.744 1.112-.268.377-.44.865-.44 1.537 0 .384.014 1.283.021 2.086.007.803.02 1.524.02 1.53A1.3 1.3 0 0 1 6.4 7.757H3.097c-.708 0-1.243.116-1.655.302-.412.185-.7.439-.927.734-.44.59-.515 1.324-.515 2.065 0 0 .007.611.151 1.785.124.912 1.112 7.28 2.053 9.216.364.755.604 1.064 1.325 1.4 1.593.68 5.232 1.44 6.941 1.66 1.703.22 2.774.673 3.413-.658 0 0 .13-.33.302-.817.556-1.674.632-3.164.632-4.24 0-.11.158-.118.158 0 0 .76-.145 3.444 1.888 4.165.803.28 2.464.535 4.153.734 1.532.178 2.637.775 2.637 4.694 0 2.381-.501 2.71-3.117 2.71-2.122 0-2.932.055-2.932-1.633 0-1.366 1.346-1.221 2.348-1.221.447 0 .124-.33.124-1.174 0-.837.522-1.317.027-1.331-3.453-.096-5.486-.007-5.486 4.316 0 3.919 1.504 4.653 6.406 4.653 3.845 0 5.198-.124 6.79-5.05.317-.975 1.072-3.94 1.532-8.922.274-3.122-.289-12.627-.735-15.028zm-6.7 10.506a7.277 7.277 0 0 0-1.36.082c.116-.967.521-2.155 1.936-2.107 1.565.055 1.785 1.538 1.792 2.54-.66-.296-1.483-.48-2.369-.515zm11.994 5.352h1.476l.069-9.435h-1.552v-1.812h9.79l.117 3.671h-1.929l-.165-1.86h-3.694l-.02 3.693h3.742v1.811h-3.763l-.02 3.932h3.714l.24-2.1h2.095l-.24 3.905h-9.867v-1.805h.007zm25.5-9.428h-1.236l-4.648 11.24h-2.671l-4.669-11.24h-1.311v-1.812h5.575v1.812h-1.312l3.22 8.859h.048l3.193-8.86h-1.572v-1.811h5.383v1.812zm1.284 9.428h1.476l.068-9.435h-1.544v-1.812h9.79l.117 3.671h-1.93l-.164-1.86h-3.694l-.02 3.693h3.741v1.811h-3.762l-.027 3.932h3.714l.24-2.1h2.094l-.24 3.905h-9.86v-1.805zm12.557 0h1.477l.068-9.435h-1.552v-1.812h6.029c3.028 0 4.003 1.736 4.003 3.431 0 1.503-.742 2.862-3.076 3.452v.048c1.215.336 1.524.645 2.74 2.738.81 1.359 1.098 1.572 1.55 1.572.193 0 .378-.048.55-.069v1.88h-1.332c-1.764 0-1.977-.212-3.357-2.95-1.243-2.43-1.525-2.595-2.479-2.595h-.522l-.027 3.74h1.552v1.812h-5.624v-1.812zm4.127-5.551l.02-3.884h1.573c1.187 0 1.785.713 1.785 1.907 0 1.215-.948 1.977-2.355 1.977h-1.023zm19.657-3.877h-1.552v-1.812h5.122v1.812h-1.476l-.069 11.24h-1.957l-6.975-9.292h-.048l-.076 7.48h1.552v1.812h-5.122v-1.812h1.476l.069-9.435H86.42v-1.812h3.859l6.625 8.839h.048l.076-7.02zm10.985-2.073c4.504 0 6.482 2.978 6.482 6.602 0 4.117-2.458 6.979-6.482 6.979-4.504 0-6.481-2.978-6.481-6.622 0-4.104 2.458-6.959 6.481-6.959zm0 11.48c-2.19 0-3.81-1.694-3.81-4.617 0-2.69 1.38-4.763 3.81-4.763 2.19 0 3.81 1.688 3.81 4.666 0 2.642-1.38 4.715-3.81 4.715zm10.587.021h1.477l.068-9.435h-2.623l-.096 1.86h-1.977l.144-3.672h11.707l.144 3.671h-1.978l-.096-1.86h-2.623l-.068 9.436h1.551v1.812h-5.623l-.007-1.812zm10.292 0h1.477l.075-9.435h-1.552v-1.812h9.798l.117 3.671h-1.93l-.164-1.86h-3.694l-.02 3.693h3.741v1.811h-3.762l-.028 3.932h3.715l.24-2.1H139l-.24 3.905h-9.867v-1.805z" fill="#FFF" fill-rule="evenodd" opacity=".2"/>
</svg>