<?xml version="1.0" encoding="UTF-8"?>
<svg id="icon-logo" width="121px" height="22px" viewBox="0 0 121 22" version="1.1" xmlns="http://www.w3.org/2000/svg" xmlns:xlink="http://www.w3.org/1999/xlink">
      <path d="M2.75 21.553V12.92c0-2.143 1.33-3.632 3.31-3.632 2.13 0 3.016 1.43 3.016 3.275v8.99h2.78V12.89c0-2.054 1.33-3.602 3.28-3.602 2.1 0 3.016 1.4 3.016 3.275v8.99h2.75v-9.288c0-3.75-2.424-5.448-4.908-5.448-1.803 0-3.636.655-4.76 2.71-.768-1.846-2.483-2.71-4.257-2.71-1.655 0-3.43.745-4.316 2.322V7.234H0v14.32h2.75zM32.562 19.5c-2.365 0-4.435-1.786-4.435-5.12 0-3.305 2.07-5.09 4.435-5.09 2.365 0 4.435 1.785 4.435 5.09 0 3.334-2.07 5.12-4.435 5.12zm0-12.711c-4.257 0-7.273 3.244-7.273 7.59 0 4.377 3.016 7.622 7.273 7.622s7.273-3.245 7.273-7.621c0-4.347-3.016-7.591-7.273-7.591zm13.612 7.561c0-2.947 1.656-5.031 4.199-5.031 2.542 0 4.08 2.024 4.08 4.972 0 2.947-1.567 5.18-4.11 5.18-2.66 0-4.169-2.174-4.169-5.12zm8.308 5.27c0 .863.089 1.607.148 1.934h2.69a22.81 22.81 0 0 1-.148-2.65V0h-2.75v9.258c-.472-1.16-1.832-2.41-4.345-2.41-4.02 0-6.74 3.452-6.74 7.501 0 4.257 2.571 7.591 6.74 7.591 2.217 0 3.725-1.19 4.405-2.56v.238zm17.781.208c0 .595.06 1.399.118 1.726h2.661a24.256 24.256 0 0 1-.148-2.65V7.235h-2.779v8.633c0 2.174-1.123 3.662-3.37 3.662-2.336 0-3.223-1.727-3.223-3.691V7.234h-2.779v9.02c0 3.245 2.01 5.746 5.322 5.746 1.655 0 3.43-.685 4.198-2.173zm11.277 1.726V0h-2.78v21.553h2.78zm7.67-8.633c.118-1.846 1.537-3.662 3.873-3.662 2.513 0 3.843 1.608 3.902 3.662h-7.775zm8.19 3.721l2.394.834C100.997 20.005 98.72 22 95.409 22c-3.814 0-7.155-2.798-7.155-7.65 0-4.496 3.223-7.562 6.8-7.562 4.376 0 6.83 3.036 6.83 7.502 0 .357-.03.714-.06.893H91.122c.06 2.56 1.892 4.346 4.287 4.346 2.306 0 3.459-1.28 3.991-2.888zm17.443-13.524l-1.402-.097c-.012-.108-.036-.29-.036-.447 0-1.353 1.015-2.573 2.791-2.573 1.728 0 2.755 1.124 2.755 2.465 0 1.015-.568 1.848-1.51 2.428l-1.523.943c-.374.23-.689.507-.797.894H121v1.28h-5.666c.024-1.34.495-2.392 1.86-3.238l1.293-.81c.7-.434 1.003-.905 1.003-1.473 0-.64-.435-1.22-1.317-1.22-.918 0-1.365.64-1.365 1.45 0 .12.024.265.036.398zm-7.406.979c0-.991.169-1.752.555-2.235.266-.35.64-.58 1.209-.58.568 0 .93.23 1.208.58.374.483.544 1.244.544 2.235 0 .99-.17 1.752-.544 2.235-.278.35-.64.58-1.208.58s-.943-.23-1.209-.58c-.374-.483-.555-1.245-.555-2.235zm-1.438 0c0 1.039.17 2.017.7 2.815.508.76 1.33 1.28 2.502 1.28 1.172 0 1.981-.52 2.489-1.28.531-.798.7-1.776.7-2.815 0-1.04-.169-2.018-.7-2.815C113.183.52 112.374 0 111.2 0c-1.171 0-1.993.52-2.5 1.28-.532.798-.701 1.777-.701 2.816z" fill="#43484D" fill-rule="evenodd"/>
</svg>